<?xml version="1.0" encoding="UTF-8" standalone="no"?>
<svg
   xmlns:dc="http://purl.org/dc/elements/1.1/"
   xmlns:cc="http://creativecommons.org/ns#"
   xmlns:rdf="http://www.w3.org/1999/02/22-rdf-syntax-ns#"
   xmlns:svg="http://www.w3.org/2000/svg"
   xmlns="http://www.w3.org/2000/svg"
   id="svg2390"
   version="1.1"
   viewBox="0 0 63.954037 63.953609"
   height="63.953609mm"
   width="63.954037mm">
  <defs
     id="defs2384" />
  <metadata
     id="metadata2387">
    <rdf:RDF>
      <cc:Work
         rdf:about="">
        <dc:format>image/svg+xml</dc:format>
        <dc:type
           rdf:resource="http://purl.org/dc/dcmitype/StillImage" />
        <dc:title></dc:title>
      </cc:Work>
    </rdf:RDF>
  </metadata>
  <g
     transform="translate(-102.45943,-12.720825)"
     id="layer2" />
  <g
     transform="translate(-102.45943,-12.720825)"
     id="layer1">
    <path
       id="path1331-3"
       d="m 132.99174,12.753505 a 31.976975,31.976975 0 0 0 -17.78496,6.394958 31.976975,31.976975 0 0 0 -6.32003,44.777628 31.976975,31.976975 0 0 0 44.77763,6.321578 31.976975,31.976975 0 0 0 6.32313,-44.777111 l -7.82898,5.891113 0.23668,0.426847 c 0,0 0.45319,0.816858 0.53278,0.965316 0.0794,0.148534 0.73329,1.428336 0.73329,1.428336 l 0.87075,1.872236 0.3762,0.897105 0.34158,0.933275 0.45579,1.530141 0.22117,0.92914 0.30128,1.576133 0.17466,1.11931 0.0398,0.763778 c 1.5e-4,0.0011 3.8e-4,0.002 5.2e-4,0.0031 l 0.0398,0.767395 -0.0305,1.225765 -0.0289,1.358574 -0.0532,1.373561 c 0,0 -0.0761,1.026644 -0.092,1.169953 -0.0159,0.143293 0.0376,0.281831 -0.15864,1.095541 l -0.19638,0.813388 -0.41031,1.551842 -0.19998,0.837157 -0.25012,1.016993 -0.52451,1.710491 -0.4501,0.985986 -0.82734,1.588016 -0.48318,0.960665 -0.74724,1.38803 -0.34727,0.419611 c -0.1261,0.185153 -0.24788,0.347332 -0.35708,0.45217 -0.0357,0.03428 -0.0752,0.0767 -0.11162,0.112655 l -0.45114,0.544668 -1.46812,1.374593 -1.64176,0.976169 -1.58699,0.6227 -1.03404,0.190688 -0.62374,-0.0047 -0.0129,-0.01344 c -0.002,-1.6e-5 -0.0106,7.6e-5 -0.0191,0 l 0.0279,-0.01551 -1.92598,-1.909961 -0.0274,0.05426 -0.0382,-0.03876 c 0.56419,-1.044996 1.08999,-1.429936 1.6924,-3.134178 0.60241,-1.704239 1.4675,-2.879238 1.80661,-5.111832 0.33911,-2.232593 1.01599,-5.530794 1.01699,-6.696749 2.3e-4,-0.26366 0.008,-0.514509 0.0171,-0.763776 l -0.0114,0.04444 -0.52349,1.444358 -0.50539,1.117245 -0.55604,1.240234 -0.58394,1.244368 c 0,0 -0.4696,0.91546 -0.54002,1.04128 -0.0704,0.125807 -0.0755,0.274167 -0.57309,0.947227 l -0.49765,0.673346 -0.98185,1.269172 -0.51005,0.6935 -0.62631,0.839223 -1.14929,1.370976 -0.79892,0.73329 -1.38027,1.140497 -0.81907,0.696082 -1.22835,0.988055 -0.49093,0.254764 c -0.18576,0.11947 -0.3583,0.219919 -0.49816,0.273368 -0.044,0.0168 -0.0944,0.03942 -0.13953,0.05736 l -0.63407,0.329179 -1.88774,0.694531 -1.89239,0.259416 -1.70429,-0.04393 -1.02681,-0.227375 -0.57205,-0.247015 -0.007,-0.01705 c -0.002,-9.32e-4 -0.0172,-0.0076 -0.0186,-0.0083 l -1.19787,0.121438 -0.66197,-1.898592 0.81597,-0.694531 -0.0207,-0.05168 c 0.92658,-0.74281 1.56013,-0.89264 2.77864,-2.22777 1.04543,-1.145493 2.11735,-1.85882 3.1471,-3.253031 l -1.00511,0.688329 -0.69815,0.503328 -0.85369,0.606165 -1.51464,0.952397 -0.98547,0.452168 -1.66346,0.661974 -0.99374,0.411345 -1.47226,0.563274 -0.54261,0.09147 c -0.21446,0.05705 -0.4101,0.09952 -0.56017,0.107487 -0.0468,0.0025 -0.10155,0.0087 -0.14986,0.01188 l -0.70538,0.118856 -2.0097,0.08113 -1.88051,-0.33383 -1.60868,-0.564822 -0.90744,-0.531752 -0.46871,-0.410826 -10e-4,-0.01809 c -0.002,-0.0016 -0.0143,-0.01241 -0.0155,-0.01344 l -1.17719,-0.252182 -0.047,-2.010212 0.99012,-0.411345 -0.004,-0.05478 c 1.10986,-0.422532 1.75898,-0.370454 3.32848,-1.267106 1.56951,-0.896654 2.99236,-1.221086 4.70772,-2.689759 1.71537,-1.468673 4.38221,-3.523528 5.14491,-4.405416 0.76271,-0.881888 1.48096,-1.520793 2.28719,-2.644799 0.80624,-1.124018 2.01991,-2.429565 2.41795,-3.371371 0.39804,-0.941808 0.94204,-2.039276 1.1932,-2.825152 0.25118,-0.78586 0.50109,-1.507598 0.75241,-2.356961 0.25132,-0.849349 0.50205,-1.888747 0.75293,-2.547649 0.25089,-0.658897 0.50828,-1.511551 0.75189,-1.976106 0.24361,-0.464546 0.57924,-1.099357 0.72967,-1.393196 0.15043,-0.293829 0.29188,-0.600424 0.45011,-0.880567 0.1582,-0.280144 0.42557,-0.581847 0.47387,-0.840258 0.0483,-0.258421 0.14966,-0.71489 0.14366,-0.77463 -0.006,-0.05977 0.15182,0.844614 -0.0196,-0.1788 -0.16193,-0.966573 -0.32479,-1.932815 -0.48731,-2.899048 l -0.0718,-0.09922 -0.82217,-2.175578 1.72599,-0.887801 1.13792,-1.142049 0.1266,-0.313159 3.56671,2.137337 c 0.0484,0.02448 0.10892,0.05607 0.15916,0.08165 l 0.85008,0.411344 0.81287,0.419613 0.48783,0.24908 1.07022,0.507463 0.0315,0.0098 h 5.2e-4 c 0.17635,0.02235 0.0679,-0.119172 0.88315,0.271818 l 0.12454,0.03824 0.82785,0.333829 0.75655,0.267684 c 0,0 0.61273,0.254767 0.78806,0.361735 0.17534,0.106976 0.70538,0.533301 0.70538,0.533301 0,0 0.58082,0.506385 0.6997,0.596346 0.1189,0.08995 0.45321,0.342615 0.45321,0.342615 0,0 0.83675,0.741117 0.94361,0.872815 0.10684,0.131697 0.56947,0.842326 0.56947,0.842326 l 0.3266,0.589628 7.82794,-5.892147 A 31.976975,31.976975 0 0 0 132.99174,12.753505 Z"
       style="fill:#f9f9f9;fill-rule:evenodd;stroke-width:0.23686647" />
  </g>
</svg>
