<?xml version="1.0" encoding="UTF-8" standalone="no"?>
<svg
   xmlns:dc="http://purl.org/dc/elements/1.1/"
   xmlns:cc="http://creativecommons.org/ns#"
   xmlns:rdf="http://www.w3.org/1999/02/22-rdf-syntax-ns#"
   xmlns:svg="http://www.w3.org/2000/svg"
   xmlns="http://www.w3.org/2000/svg"
   id="svg963"
   version="1.1"
   viewBox="0 0 60.35957 84.875694"
   height="84.875694mm"
   width="60.35957mm">
  <defs
     id="defs957" />
  <metadata
     id="metadata960">
    <rdf:RDF>
      <cc:Work
         rdf:about="">
        <dc:format>image/svg+xml</dc:format>
        <dc:type
           rdf:resource="http://purl.org/dc/dcmitype/StillImage" />
        <dc:title></dc:title>
      </cc:Work>
    </rdf:RDF>
  </metadata>
  <g
     transform="translate(-126.52157,-54.177148)"
     id="layer1">
    <flowRoot
       transform="scale(0.26458333)"
       style="font-style:normal;font-weight:normal;font-size:192px;line-height:1.25;font-family:sans-serif;letter-spacing:0px;word-spacing:0px;fill:#000000;fill-opacity:1;stroke:none"
       id="flowRoot965"
       xml:space="preserve"><flowRegion
         style="font-size:192px"
         id="flowRegion967"><rect
           style="font-size:192px"
           y="2.519685"
           x="-2.8571429"
           height="1120"
           width="794.28571"
           id="rect969" /></flowRegion><flowPara
         id="flowPara971"></flowPara></flowRoot>    <flowRoot
       transform="scale(0.26458333)"
       style="font-style:normal;font-weight:normal;font-size:192px;line-height:1.25;font-family:sans-serif;letter-spacing:0px;word-spacing:0px;fill:#000000;fill-opacity:1;stroke:none"
       id="flowRoot973"
       xml:space="preserve"><flowRegion
         style="font-size:192px"
         id="flowRegion975"><rect
           style="font-size:192px"
           y="248.23398"
           x="97.14286"
           height="605.71429"
           width="531.42859"
           id="rect977" /></flowRegion><flowPara
         id="flowPara979"></flowPara></flowRoot>    <path
       id="path2367"
       d="m 155.96048,58.89932 a 22.517319,22.517319 0 0 0 -22.5175,22.517489 22.517319,22.517319 0 0 0 0.13695,2.408121 c 0.42595,0.790199 1.23613,1.347187 2.20192,1.405087 l 3.76152,0.22582 c 1.48641,0.0891 2.75519,-1.035931 2.84427,-2.522326 9.3e-4,-0.01568 -1e-4,-0.0309 5.3e-4,-0.04651 a 4.7312474,1.4973215 83.177912 0 1 -0.0134,-0.396359 c -7.4e-4,-0.007 -7.9e-4,-0.0142 -0.002,-0.02119 h 0.001 a 4.7312474,1.4973215 83.177912 0 1 0.28628,-2.548165 13.390149,13.390149 0 0 1 13.29997,-11.894881 13.390149,13.390149 0 0 1 13.38988,13.390399 13.390149,13.390149 0 0 1 -11.72745,13.261202 v 0.10542 h -1.04542 a 13.390149,13.390149 0 0 1 -0.0641,0.004 c -0.12861,0.0301 -0.2621,0.048 -0.4,0.0491 l -5.50767,0.0429 c -2.0221,0.41485 -3.53518,2.19349 -3.53518,4.34186 v 0.54777 c -0.0283,0.0916 -0.048,0.18725 -0.048,0.288353 v 16.60985 c 0,0.53921 0.43437,0.97358 0.97357,0.97358 h 7.94215 c 0.53922,0 0.97359,-0.43437 0.97359,-0.97358 v -12.7801 A 22.517319,22.517319 0 0 0 178.47795,81.416809 22.517319,22.517319 0 0 0 155.96048,58.89932 Z m -18.6645,35.144107 a 22.517319,22.517319 0 0 0 0.35708,0.48473 22.517319,22.517319 0 0 1 -0.35708,-0.48473 z m 14.80788,27.733193 a 5.7470984,5.7470984 0 0 0 -5.74694,5.74746 5.7470984,5.7470984 0 0 0 5.74694,5.74693 5.7470984,5.7470984 0 0 0 5.74744,-5.74693 5.7470984,5.7470984 0 0 0 -5.74744,-5.74746 z"
       style="opacity:1;fill:#f2f2f2;fill-opacity:1;stroke:#151f3b;stroke-width:3;stroke-linecap:round;stroke-linejoin:round;stroke-miterlimit:4;stroke-dasharray:none;stroke-opacity:0" />
  </g>
</svg>
