<?xml version="1.0" encoding="UTF-8" standalone="no"?>
<svg
   xmlns:dc="http://purl.org/dc/elements/1.1/"
   xmlns:cc="http://creativecommons.org/ns#"
   xmlns:rdf="http://www.w3.org/1999/02/22-rdf-syntax-ns#"
   xmlns:svg="http://www.w3.org/2000/svg"
   xmlns="http://www.w3.org/2000/svg"
   id="svg8"
   version="1.1"
   viewBox="0 0 33.408691 28.731476"
   height="28.731476mm"
   width="33.408691mm">
  <defs
     id="defs2" />
  <metadata
     id="metadata5">
    <rdf:RDF>
      <cc:Work
         rdf:about="">
        <dc:format>image/svg+xml</dc:format>
        <dc:type
           rdf:resource="http://purl.org/dc/dcmitype/StillImage" />
        <dc:title></dc:title>
      </cc:Work>
    </rdf:RDF>
  </metadata>
  <g
     transform="translate(-82.44728,-184.47954)"
     id="layer1">
    <path
       id="rect10-1"
       d="m 86.988175,213.03181 c 0.58494,-0.0176 1.20803,-0.16218 1.81595,-0.44547 l 23.213935,-10.81737 c 1.85268,-0.86337 2.84154,-2.67744 2.21693,-4.06681 -0.051,-0.1132 -0.11348,-0.21776 -0.18174,-0.31798 -0.40492,-0.76888 -1.1512,-1.46795 -2.13313,-1.89897 L 88.475725,185.19468 c -1.87107,-0.8213 -3.8553,-0.35296 -4.44946,1.05018 -0.074,0.17475 -0.12038,0.35567 -0.1452,0.53973 a 4.8556717,4.9437197 0 0 1 0.21779,0.87408 8.2856943,15.329934 0 0 1 2.6769,11.25342 8.2856943,15.329934 0 0 1 -2.29735,10.55891 4.8556717,4.9437197 0 0 1 -0.23777,0.61611 c -0.1429,0.52949 -0.12575,1.06568 0.0922,1.55023 0.39038,0.86836 1.31599,1.35915 2.40744,1.39447 0.0818,0.003 0.16444,0.003 0.24801,0 z"
       style="opacity:1;fill:#ffffff;fill-opacity:0.95979901;stroke:#151f3b;stroke-width:0;stroke-linecap:round;stroke-linejoin:round;stroke-miterlimit:4;stroke-dasharray:none;stroke-opacity:0" />
  </g>
</svg>
