<?xml version="1.0" encoding="UTF-8" standalone="no"?>
<svg
   xmlns:dc="http://purl.org/dc/elements/1.1/"
   xmlns:cc="http://creativecommons.org/ns#"
   xmlns:rdf="http://www.w3.org/1999/02/22-rdf-syntax-ns#"
   xmlns:svg="http://www.w3.org/2000/svg"
   xmlns="http://www.w3.org/2000/svg"
   id="svg8"
   version="1.1"
   viewBox="0 0 210 297"
   height="297mm"
   width="210mm">
  <defs
     id="defs2" />
  <metadata
     id="metadata5">
    <rdf:RDF>
      <cc:Work
         rdf:about="">
        <dc:format>image/svg+xml</dc:format>
        <dc:type
           rdf:resource="http://purl.org/dc/dcmitype/StillImage" />
        <dc:title></dc:title>
      </cc:Work>
    </rdf:RDF>
  </metadata>
  <g
     id="layer1">
    <path
       id="path830"
       d="m 92.504717,125.58433 a 22.407471,23.738607 0 0 0 -22.376139,23.06936 c -4.077472,2.76312 -6.666006,6.90082 -6.666006,11.54753 v 1.77419 c 0,8.35775 8.355791,15.08728 18.735161,15.08728 h 39.333727 c 10.37931,0 18.73513,-6.72953 18.73513,-15.08728 v -1.77419 c 0,-5.3293 -3.40543,-9.98733 -8.55856,-12.6697 a 15.973641,15.973641 0 0 0 -15.90747,-14.62575 15.973641,15.973641 0 0 0 -6.1032,1.22511 22.407471,23.738607 0 0 0 -17.192643,-8.54655 z m 9.589803,10.89724 v 0.002 a 3.8270184,3.8270184 0 0 1 1.72269,0.41521 c 0.56897,0.21516 1.10507,0.59447 1.52878,1.13247 l 7.48792,9.50569 c 0.40834,0.51854 0.65002,1.10554 0.73436,1.68666 a 3.8270184,3.8270184 0 0 1 0.17332,1.12732 3.8270184,3.8270184 0 0 1 -3.37844,3.79541 c -0.29618,0.0628 -0.60128,0.10493 -0.9197,0.10459 l -3.07818,-0.007 v 13.2428 c 0,2.39668 -1.89266,4.3256 -4.24329,4.3256 h -0.16635 c -2.350633,0 -4.243233,-1.92892 -4.243233,-4.3256 v -13.25478 l -2.93922,-0.003 c -0.6385,-8.7e-4 -1.23055,-0.14842 -1.76045,-0.38779 a 3.8270184,3.8270184 0 0 1 -2.39874,-3.54834 3.8270184,3.8270184 0 0 1 0.38436,-1.66093 c 0.12485,-0.3909 0.32075,-0.77251 0.59195,-1.12387 l 7.33519,-9.50572 c 0.41826,-0.54211 0.94951,-0.92342 1.511653,-1.13758 a 3.8270184,3.8270184 0 0 1 1.65748,-0.3826 z"
       style="opacity:1;fill:#151f3b;fill-opacity:0.95979901;stroke:#151f3b;stroke-width:0;stroke-linecap:round;stroke-linejoin:round;stroke-miterlimit:4;stroke-dasharray:none;stroke-opacity:0" />
  </g>
  <g
     id="layer2" />
</svg>
